<svg id="Calque_1" data-name="Calque 1" xmlns="http://www.w3.org/2000/svg" viewBox="0 0 150 43.4"><defs><style>.cls-1{fill:#fff;}</style></defs><title>logo</title><path class="cls-1" d="M31.87,18.58h2.34V10.76h2.07l7,12.68h2.85l-5.77-10c-.61-1-1.39-2.26-1.83-3a4.2,4.2,0,0,0,3.21-4.29c0-3-1.9-4.63-4.82-4.63H31.65a24,24,0,0,1,.22,3.58ZM18.28,19.84a11.91,11.91,0,0,1-6,1.51C7,21.35,2.68,18.14,2.68,12c0-6.45,4.46-9.74,9.28-9.74a11.82,11.82,0,0,1,5.89,1.46l.29-2.58A15.14,15.14,0,0,0,12,0,11.62,11.62,0,0,0,0,12c0,6.7,4.77,11.61,12.3,11.61a14.42,14.42,0,0,0,6.38-1.44Zm7.77-4.53a30.22,30.22,0,0,1,1.17,3.26H30L22.59.66,15.27,18.58h2.65c.41-1.49.8-2.48,1.22-3.63l.22-.58h6.33Zm-1.22-2.95H20.21l1.34-3.51c.44-1.12.83-2.19,1-2.65.27.78.51,1.49,1,2.65ZM39.39,6.14c0,1.56-1.14,2.61-3,2.61H34.21V3.55h2.53a2.39,2.39,0,0,1,2.65,2.58m21.5-4.63a21.48,21.48,0,0,1,.27,3.58V18.58h2.19V7.77c0-1.24,0-1.9,0-2.53,0,0,0,0,0,0l12,13.93V1.51H73.14V9.08c0,1.63,0,3,.07,3.87,0,0,0,0,0,0-.54-.71-1.07-1.41-1.92-2.39L63.35,1.51Zm26,4.72c0,2-1,3.16-3.21,3.16h-.56v-6h.63c2.07,0,3.14.95,3.14,2.82m-5.82,5h2.63c3.75,0,5.38-2,5.38-5,0-2.58-1.51-4.72-5.14-4.72h-3A14.31,14.31,0,0,1,81,3.75Zm10.4-4.8h1.75l2-4.92H92.71Zm29.26,8.84a7.18,7.18,0,0,1-4.43,1.34c-3.38,0-6.35-2.12-6.35-6.28,0-4.55,3.07-6.82,6.23-6.82a8.15,8.15,0,0,1,4.36,1.27L121,2.29a11,11,0,0,0-4.72-.95,8.68,8.68,0,0,0-8.91,9c0,4.87,3.73,8.45,8.91,8.45a9.24,9.24,0,0,0,5.06-1.27Zm2.87-13.76a24.48,24.48,0,0,1,.22,3.63V18.58h2.39V10.66h8.45v7.91H137V1.51h-2.39V8.62h-8.45V1.51Zm17,0a28.91,28.91,0,0,1,.19,3.63V18.58h9l.24-2h-6.84V10.66h5.28l.19-2h-5.48V3.55h6.26l.27-2ZM55.15,15.31a30.22,30.22,0,0,1,1.17,3.26h2.75L51.69.66,44.36,18.58H47c.41-1.49.8-2.48,1.22-3.63l.22-.58h6.33Zm-1.22-2.95H49.3c.78-2,2.09-5.48,2.34-6.16.24.78.49,1.49.95,2.65Zm50.59,6.72c.63,1.58,1.1,2.82,1.58,4.33h2.73L99.46.66,92.13,18.58h2.65c.41-1.49.8-2.48,1.22-3.63l.22-.58h6.33Zm-2.82-6.72H97.07c.8-2.07,2.07-5.48,2.31-6.16.27.78.51,1.49,1,2.65Z"/><path class="cls-1" d="M63.41,37.39H59.28l-.15,1.14H62v2.9a4.47,4.47,0,0,1-2.24.5,4.23,4.23,0,0,1-4.34-4.56c0-3.2,2.17-4.84,4.42-4.84a5.42,5.42,0,0,1,2.9.81L63,31.89a7.52,7.52,0,0,0-3.1-.6,5.88,5.88,0,0,0-6,6.08,5.64,5.64,0,0,0,5.85,5.8,7.24,7.24,0,0,0,3.58-.86V39.74c0-1,0-1.69.08-2.35m7.28,1.81v-.38c0-2.15-1.28-3.11-2.77-3.11-1.86,0-3.28,1.52-3.28,3.83s1.47,3.64,3.38,3.64a3.24,3.24,0,0,0,2.43-1l-.53-.86a2.74,2.74,0,0,1-1.92.83c-1.13,0-2.17-.78-2.17-2.75V39.2Zm-1.26-.93H66a1.91,1.91,0,0,1,1.89-1.54,1.55,1.55,0,0,1,1.52,1.54m8.17,0c0-1.76-.91-2.53-2.24-2.53a2.91,2.91,0,0,0-2.22,1.18l0,0,.08-1-1.28.22L72,37.89V43h1.19V37.59a2.43,2.43,0,0,1,1.76-.81c1,0,1.47.46,1.47,1.66V43H77.6Zm7.38,1v-.38c0-2.15-1.28-3.11-2.77-3.11-1.85,0-3.28,1.52-3.28,3.83s1.47,3.64,3.38,3.64a3.24,3.24,0,0,0,2.44-1l-.53-.86a2.74,2.74,0,0,1-1.92.83c-1.13,0-2.17-.78-2.17-2.75V39.2Zm-1.26-.93H80.3a1.91,1.91,0,0,1,1.89-1.54,1.55,1.55,0,0,1,1.52,1.54M81.6,31.43H80.17l1.57,3.21h.84Zm5.5,6c-.18-.45-.35-.88-.53-1.47H85.19l3.2,7.47,3.13-7.47H90.19a14.65,14.65,0,0,1-.55,1.64l-.75,1.87c-.23.56-.33.89-.46,1.24h0c-.13-.4-.28-.71-.48-1.23ZM97.76,39.2v-.38c0-2.15-1.28-3.11-2.77-3.11-1.86,0-3.28,1.52-3.28,3.83s1.47,3.64,3.38,3.64a3.24,3.24,0,0,0,2.43-1L97,41.28a2.75,2.75,0,0,1-1.92.83c-1.13,0-2.17-.78-2.17-2.75V39.2Zm-1.26-.93H93.09A1.9,1.9,0,0,1,95,36.73a1.55,1.55,0,0,1,1.52,1.54"/></svg>